<svg width="20" height="21" viewBox="0 0 20 21" fill="none" xmlns="http://www.w3.org/2000/svg">
<path fill-rule="evenodd" clip-rule="evenodd" d="M10.293 3.94757C10.4805 3.7601 10.7348 3.65479 11 3.65479C11.2652 3.65479 11.5195 3.7601 11.707 3.94757L17.707 9.94757C17.8945 10.1351 17.9998 10.3894 17.9998 10.6546C17.9998 10.9197 17.8945 11.174 17.707 11.3616L11.707 17.3616C11.5184 17.5437 11.2658 17.6445 11.0036 17.6422C10.7414 17.64 10.4906 17.5348 10.3052 17.3494C10.1198 17.164 10.0146 16.9132 10.0123 16.651C10.01 16.3888 10.1108 16.1362 10.293 15.9476L14.586 11.6546H3C2.73478 11.6546 2.48043 11.5492 2.29289 11.3617C2.10536 11.1741 2 10.9198 2 10.6546C2 10.3894 2.10536 10.135 2.29289 9.94746C2.48043 9.75993 2.73478 9.65457 3 9.65457H14.586L10.293 5.36157C10.1055 5.17404 10.0002 4.91974 10.0002 4.65457C10.0002 4.38941 10.1055 4.1351 10.293 3.94757Z" fill="white"/>
</svg>
