<svg width="17" height="14" viewBox="0 0 17 14" fill="none" xmlns="http://www.w3.org/2000/svg">
<path fill-rule="evenodd" clip-rule="evenodd" d="M8.793 0.292786C8.98053 0.105315 9.23484 0 9.5 0C9.76516 0 10.0195 0.105315 10.207 0.292786L16.207 6.29279C16.3945 6.48031 16.4998 6.73462 16.4998 6.99979C16.4998 7.26495 16.3945 7.51926 16.207 7.70679L10.207 13.7068C10.0184 13.8889 9.7658 13.9897 9.5036 13.9875C9.2414 13.9852 8.99059 13.88 8.80518 13.6946C8.61977 13.5092 8.5146 13.2584 8.51233 12.9962C8.51005 12.734 8.61084 12.4814 8.793 12.2928L13.086 7.99979H1.5C1.23478 7.99979 0.98043 7.89443 0.792893 7.70689C0.605357 7.51936 0.5 7.265 0.5 6.99979C0.5 6.73457 0.605357 6.48022 0.792893 6.29268C0.98043 6.10514 1.23478 5.99979 1.5 5.99979H13.086L8.793 1.70679C8.60553 1.51926 8.50021 1.26495 8.50021 0.999786C8.50021 0.734622 8.60553 0.480314 8.793 0.292786Z" fill="white"/>
</svg>
