<svg width="3031" height="1000" viewBox="0 0 3031 1000" fill="none" xmlns="http://www.w3.org/2000/svg">
<path d="M763.16 236.84L526.32 210.525L236.845 236.84L210.525 500L236.84 763.16L500 796.055L763.16 763.16L789.475 493.425L763.16 236.84Z" fill="white"/>
<path d="M344.805 645.13C325.135 631.84 311.515 612.435 304.08 586.775L349.74 567.96C353.885 583.75 361.12 595.985 371.45 604.67C381.715 613.355 394.215 617.63 408.82 617.63C423.755 617.63 436.585 613.09 447.305 604.01C458.025 594.93 463.425 583.35 463.425 569.34C463.425 555 457.765 543.285 446.45 534.21C435.135 525.135 420.925 520.59 403.95 520.59H377.57V475.395H401.25C415.855 475.395 428.16 471.45 438.16 463.555C448.16 455.66 453.16 444.87 453.16 431.12C453.16 418.885 448.685 409.145 439.74 401.845C430.795 394.545 419.475 390.86 405.725 390.86C392.305 390.86 381.645 394.415 373.75 401.585C365.855 408.755 360.13 417.57 356.515 427.965L311.32 409.15C317.305 392.175 328.295 377.175 344.41 364.215C360.53 351.255 381.12 344.74 406.12 344.74C424.605 344.74 441.25 348.295 455.99 355.465C470.725 362.635 482.305 372.57 490.66 385.2C499.015 397.895 503.16 412.11 503.16 427.895C503.16 444.015 499.28 457.63 491.515 468.815C483.75 480 474.21 488.55 462.895 494.54V497.235C477.83 503.485 490 513.025 499.605 525.855C509.145 538.685 513.945 554.015 513.945 571.91C513.945 589.805 509.405 605.79 500.325 619.805C491.245 633.82 478.68 644.87 462.76 652.895C446.775 660.92 428.815 665 408.88 665C385.79 665.065 364.475 658.42 344.805 645.13Z" fill="#1A73E8"/>
<path d="M625 418.555L575.13 454.805L550.065 416.78L640 351.91H674.475V657.895H625V418.555Z" fill="#1A73E8"/>
<path d="M763.16 1000L1000 763.16L881.58 710.53L763.16 763.16L710.53 881.58L763.16 1000Z" fill="#EA4335"/>
<path d="M184.21 881.58L236.84 1000H763.155V763.16L236.84 763.16L184.21 881.58Z" fill="#34A853"/>
<path d="M78.945 0C35.33 0 0 35.33 0 78.945V763.155L118.42 815.785L236.84 763.155V236.84H763.155L815.785 118.42L763.16 0H78.945Z" fill="#4285F4"/>
<path d="M0 763.16V921.055C0 964.675 35.33 1000 78.945 1000H236.84V763.16L0 763.16Z" fill="#188038"/>
<path d="M763.16 236.84L763.16 763.155H1000V236.84L881.58 184.21L763.16 236.84Z" fill="#FBBC04"/>
<path d="M1000 236.84V78.945C1000 35.325 964.67 0 921.055 0H763.16L763.16 236.84H1000Z" fill="#1967D2"/>
<path d="M1187.46 500.4C1187.46 473.2 1193.59 448.8 1205.86 427.2C1218.12 405.333 1234.79 388.267 1255.86 376C1277.19 363.733 1300.79 357.6 1326.66 357.6C1357.06 357.6 1383.59 364.933 1406.26 379.6C1428.92 394.267 1445.46 415.067 1455.86 442H1412.26C1404.52 425.2 1393.32 412.267 1378.66 403.2C1364.26 394.133 1346.92 389.6 1326.66 389.6C1307.19 389.6 1289.72 394.133 1274.26 403.2C1258.79 412.267 1246.66 425.2 1237.86 442C1229.06 458.533 1224.66 478 1224.66 500.4C1224.66 522.533 1229.06 542 1237.86 558.8C1246.66 575.333 1258.79 588.133 1274.26 597.2C1289.72 606.267 1307.19 610.8 1326.66 610.8C1346.92 610.8 1364.26 606.4 1378.66 597.6C1393.32 588.533 1404.52 575.6 1412.26 558.8H1455.86C1445.46 585.467 1428.92 606.133 1406.26 620.8C1383.59 635.2 1357.06 642.4 1326.66 642.4C1300.79 642.4 1277.19 636.4 1255.86 624.4C1234.79 612.133 1218.12 595.2 1205.86 573.6C1193.59 552 1187.46 527.6 1187.46 500.4Z" fill="#606063"/>
<path d="M1496.44 529.6C1496.44 507.2 1500.98 487.6 1510.04 470.8C1519.11 453.733 1531.51 440.533 1547.24 431.2C1563.24 421.867 1580.98 417.2 1600.44 417.2C1619.64 417.2 1636.31 421.333 1650.44 429.6C1664.58 437.867 1675.11 448.267 1682.04 460.8V420.8H1718.84V640H1682.04V599.2C1674.84 612 1664.04 622.667 1649.64 631.2C1635.51 639.467 1618.98 643.6 1600.04 643.6C1580.58 643.6 1562.98 638.8 1547.24 629.2C1531.51 619.6 1519.11 606.133 1510.04 588.8C1500.98 571.467 1496.44 551.733 1496.44 529.6ZM1682.04 530C1682.04 513.467 1678.71 499.067 1672.04 486.8C1665.38 474.533 1656.31 465.2 1644.84 458.8C1633.64 452.133 1621.24 448.8 1607.64 448.8C1594.04 448.8 1581.64 452 1570.44 458.4C1559.24 464.8 1550.31 474.133 1543.64 486.4C1536.98 498.667 1533.64 513.067 1533.64 529.6C1533.64 546.4 1536.98 561.067 1543.64 573.6C1550.31 585.867 1559.24 595.333 1570.44 602C1581.64 608.4 1594.04 611.6 1607.64 611.6C1621.24 611.6 1633.64 608.4 1644.84 602C1656.31 595.333 1665.38 585.867 1672.04 573.6C1678.71 561.067 1682.04 546.533 1682.04 530Z" fill="#606063"/>
<path d="M1816.75 344V640H1780.35V344H1816.75Z" fill="#606063"/>
<path d="M2078.79 522C2078.79 528.933 2078.39 536.267 2077.59 544H1902.39C1903.73 565.6 1911.06 582.533 1924.39 594.8C1937.99 606.8 1954.39 612.8 1973.59 612.8C1989.33 612.8 2002.39 609.2 2012.79 602C2023.46 594.533 2030.93 584.667 2035.19 572.4H2074.39C2068.53 593.467 2056.79 610.667 2039.19 624C2021.59 637.067 1999.73 643.6 1973.59 643.6C1952.79 643.6 1934.13 638.933 1917.59 629.6C1901.33 620.267 1888.53 607.067 1879.19 590C1869.86 572.667 1865.19 552.667 1865.19 530C1865.19 507.333 1869.73 487.467 1878.79 470.4C1887.86 453.333 1900.53 440.267 1916.79 431.2C1933.33 421.867 1952.26 417.2 1973.59 417.2C1994.39 417.2 2012.79 421.733 2028.79 430.8C2044.79 439.867 2057.06 452.4 2065.59 468.4C2074.39 484.133 2078.79 502 2078.79 522ZM2041.19 514.4C2041.19 500.533 2038.13 488.667 2031.99 478.8C2025.86 468.667 2017.46 461.067 2006.79 456C1996.39 450.667 1984.79 448 1971.99 448C1953.59 448 1937.86 453.867 1924.79 465.6C1911.99 477.333 1904.66 493.6 1902.79 514.4H2041.19Z" fill="#606063"/>
<path d="M2233.64 416.8C2260.31 416.8 2281.91 424.933 2298.44 441.2C2314.97 457.2 2323.24 480.4 2323.24 510.8V640H2287.24V516C2287.24 494.133 2281.77 477.467 2270.84 466C2259.91 454.267 2244.97 448.4 2226.04 448.4C2206.84 448.4 2191.51 454.4 2180.04 466.4C2168.84 478.4 2163.24 495.867 2163.24 518.8V640H2126.84V420.8H2163.24V452C2170.44 440.8 2180.17 432.133 2192.44 426C2204.97 419.867 2218.71 416.8 2233.64 416.8Z" fill="#606063"/>
<path d="M2369.1 529.6C2369.1 507.2 2373.63 487.6 2382.7 470.8C2391.77 453.733 2404.17 440.533 2419.9 431.2C2435.9 421.867 2453.77 417.2 2473.5 417.2C2490.57 417.2 2506.43 421.2 2521.1 429.2C2535.77 436.933 2546.97 447.2 2554.7 460V344H2591.5V640H2554.7V598.8C2547.5 611.867 2536.83 622.667 2522.7 631.2C2508.57 639.467 2492.03 643.6 2473.1 643.6C2453.63 643.6 2435.9 638.8 2419.9 629.2C2404.17 619.6 2391.77 606.133 2382.7 588.8C2373.63 571.467 2369.1 551.733 2369.1 529.6ZM2554.7 530C2554.7 513.467 2551.37 499.067 2544.7 486.8C2538.03 474.533 2528.97 465.2 2517.5 458.8C2506.3 452.133 2493.9 448.8 2480.3 448.8C2466.7 448.8 2454.3 452 2443.1 458.4C2431.9 464.8 2422.97 474.133 2416.3 486.4C2409.63 498.667 2406.3 513.067 2406.3 529.6C2406.3 546.4 2409.63 561.067 2416.3 573.6C2422.97 585.867 2431.9 595.333 2443.1 602C2454.3 608.4 2466.7 611.6 2480.3 611.6C2493.9 611.6 2506.3 608.4 2517.5 602C2528.97 595.333 2538.03 585.867 2544.7 573.6C2551.37 561.067 2554.7 546.533 2554.7 530Z" fill="#606063"/>
<path d="M2639.41 529.6C2639.41 507.2 2643.94 487.6 2653.01 470.8C2662.08 453.733 2674.48 440.533 2690.21 431.2C2706.21 421.867 2723.94 417.2 2743.41 417.2C2762.61 417.2 2779.28 421.333 2793.41 429.6C2807.54 437.867 2818.08 448.267 2825.01 460.8V420.8H2861.81V640H2825.01V599.2C2817.81 612 2807.01 622.667 2792.61 631.2C2778.48 639.467 2761.94 643.6 2743.01 643.6C2723.54 643.6 2705.94 638.8 2690.21 629.2C2674.48 619.6 2662.08 606.133 2653.01 588.8C2643.94 571.467 2639.41 551.733 2639.41 529.6ZM2825.01 530C2825.01 513.467 2821.68 499.067 2815.01 486.8C2808.34 474.533 2799.28 465.2 2787.81 458.8C2776.61 452.133 2764.21 448.8 2750.61 448.8C2737.01 448.8 2724.61 452 2713.41 458.4C2702.21 464.8 2693.28 474.133 2686.61 486.4C2679.94 498.667 2676.61 513.067 2676.61 529.6C2676.61 546.4 2679.94 561.067 2686.61 573.6C2693.28 585.867 2702.21 595.333 2713.41 602C2724.61 608.4 2737.01 611.6 2750.61 611.6C2764.21 611.6 2776.61 608.4 2787.81 602C2799.28 595.333 2808.34 585.867 2815.01 573.6C2821.68 561.067 2825.01 546.533 2825.01 530Z" fill="#606063"/>
<path d="M2959.72 456.4C2966.12 443.867 2975.19 434.133 2986.92 427.2C2998.92 420.267 3013.46 416.8 3030.52 416.8V454.4H3020.92C2980.12 454.4 2959.72 476.533 2959.72 520.8V640H2923.32V420.8H2959.72V456.4Z" fill="#606063"/>
</svg>
