<svg width="87" height="87" viewBox="0 0 87 87" fill="none" xmlns="http://www.w3.org/2000/svg">
<g clip-path="url(#clip0_119_63)">
<path d="M86.253 0.513672H0.126953V86.6397H86.253V0.513672Z" fill="#FFE7DA"/>
<path fill-rule="evenodd" clip-rule="evenodd" d="M27.9948 17.1421H46.8427C53.7895 17.1421 57.6576 21.1451 57.6576 28.0042V51.2351C57.6576 58.2066 53.7895 62.1197 46.8427 62.1197H27.9948C21.1583 62.1197 17.1777 58.2066 17.1777 51.2351V28.0042C17.1777 21.1451 21.1583 17.1421 27.9948 17.1421ZM28.6011 27.6219V27.5994H35.323C36.2923 27.5994 37.0794 28.3866 37.0794 29.3513C37.0794 30.3431 36.2923 31.1302 35.323 31.1302H28.6011C27.6319 31.1302 26.847 30.3431 26.847 29.3761C26.847 28.409 27.6319 27.6219 28.6011 27.6219ZM28.6011 41.2951H46.2323C47.1994 41.2951 47.9865 40.508 47.9865 39.541C47.9865 38.574 47.1994 37.7846 46.2323 37.7846H28.6011C27.6319 37.7846 26.847 38.574 26.847 39.541C26.847 40.508 27.6319 41.2951 28.6011 41.2951ZM28.6018 51.5723H46.233C47.1303 51.4824 47.8072 50.7155 47.8072 49.8182C47.8072 48.8962 47.1303 48.1315 46.233 48.0416H28.6018C27.9271 47.9741 27.2749 48.289 26.9151 48.8737C26.5553 49.4359 26.5553 50.178 26.9151 50.7627C27.2749 51.3249 27.9271 51.6623 28.6018 51.5723Z" fill="#FFB68F"/>
<path d="M51.6313 23.5298H23.207V57.3097H51.6313V23.5298Z" fill="#FFB68F"/>
<path d="M64.4087 29.7854H35.9844V63.5653H64.4087V29.7854Z" fill="#FF9054"/>
<path fill-rule="evenodd" clip-rule="evenodd" d="M39.5417 25.0337H58.3896C65.3364 25.0337 69.2045 29.0367 69.2045 35.8958V59.1267C69.2045 66.0983 65.3364 70.0113 58.3896 70.0113H39.5417C32.7051 70.0113 28.7246 66.0983 28.7246 59.1267V35.8958C28.7246 29.0367 32.7051 25.0337 39.5417 25.0337ZM40.1487 35.5138V35.4913H46.8706C47.8399 35.4913 48.627 36.2784 48.627 37.2431C48.627 38.2349 47.8399 39.022 46.8706 39.022H40.1487C39.1795 39.022 38.3946 38.2349 38.3946 37.2679C38.3946 36.3009 39.1795 35.5138 40.1487 35.5138ZM40.1487 49.1869H57.78C58.747 49.1869 59.5341 48.3998 59.5341 47.4328C59.5341 46.4658 58.747 45.6764 57.78 45.6764H40.1487C39.1795 45.6764 38.3946 46.4658 38.3946 47.4328C38.3946 48.3998 39.1795 49.1869 40.1487 49.1869ZM40.1494 59.4641H57.7806C58.6779 59.3742 59.3548 58.6073 59.3548 57.71C59.3548 56.788 58.6779 56.0234 57.7806 55.9334H40.1494C39.4747 55.8659 38.8226 56.1808 38.4627 56.7655C38.1029 57.3277 38.1029 58.0698 38.4627 58.6545C38.8226 59.2168 39.4747 59.5541 40.1494 59.4641Z" fill="#FF9054"/>
<path d="M57.871 38.3164H40.0578C39.0993 38.3164 38.3223 39.0934 38.3223 40.0519C38.3223 41.0105 39.0993 41.7875 40.0578 41.7875H57.871C58.8295 41.7875 59.6065 41.0105 59.6065 40.0519C59.6065 39.0934 58.8295 38.3164 57.871 38.3164Z" fill="#FFE7DA"/>
<path d="M55.4136 45.7876H40.0578C39.0993 45.7876 38.3223 46.5646 38.3223 47.5231C38.3223 48.4816 39.0993 49.2587 40.0578 49.2587H55.4136C56.3721 49.2587 57.1491 48.4816 57.1491 47.5231C57.1491 46.5646 56.3721 45.7876 55.4136 45.7876Z" fill="#FFE7DA"/>
<path d="M57.8715 53.2588H40.0573C39.0991 53.2588 38.3223 54.0356 38.3223 54.9938C38.3223 55.952 39.0991 56.7288 40.0573 56.7288H57.8715C58.8297 56.7288 59.6065 55.952 59.6065 54.9938C59.6065 54.0356 58.8297 53.2588 57.8715 53.2588Z" fill="#FFE7DA"/>
</g>
<defs>
<clipPath id="clip0_119_63">
<rect width="87" height="87" rx="20" fill="white"/>
</clipPath>
</defs>
</svg>
