<svg width="87" height="87" viewBox="0 0 87 87" fill="none" xmlns="http://www.w3.org/2000/svg">
<g clip-path="url(#clip0_25_1205)">
<path d="M86.4307 0.193848H0.304688V86.3198H86.4307V0.193848Z" fill="#E1E4FF"/>
<path d="M65.7406 23.7019C65.2695 23.3813 64.7207 23.1936 64.152 23.1584C63.5833 23.1232 63.0156 23.2419 62.5086 23.5019C59.8824 24.5693 57.0895 25.1683 54.2566 25.2719C51.0249 25.0341 47.838 24.3759 44.7766 23.3139C38.0626 21.3539 35.7366 20.8899 30.5886 21.5539C29.8654 21.6482 29.2013 22.0028 28.7205 22.5513C28.2398 23.0997 27.9753 23.8046 27.9766 24.5339V54.5739C27.9766 54.9969 28.0661 55.4151 28.2391 55.801C28.4122 56.187 28.6649 56.532 28.9807 56.8134C29.2964 57.0948 29.6682 57.3063 30.0714 57.4339C30.4747 57.5615 30.9004 57.6024 31.3206 57.5539C35.8306 57.0359 37.9306 57.4759 44.2046 59.3119C47.4496 60.4364 50.83 61.1231 54.2566 61.3539C57.757 61.224 61.2025 60.4427 64.4166 59.0499C65.7606 58.5379 66.9766 57.8499 66.9766 55.9939V26.1539C66.9806 25.6763 66.8706 25.2047 66.6556 24.7782C66.4406 24.3517 66.1269 23.9827 65.7406 23.7019Z" fill="#596AFF"/>
<path d="M21.9766 19.354C21.1809 19.354 20.4179 19.67 19.8552 20.2326C19.2926 20.7952 18.9766 21.5583 18.9766 22.354V64.354C18.9766 65.1496 19.2926 65.9127 19.8552 66.4753C20.4179 67.0379 21.1809 67.354 21.9766 67.354C22.7722 67.354 23.5353 67.0379 24.0979 66.4753C24.6605 65.9127 24.9766 65.1496 24.9766 64.354V22.354C24.9766 21.5583 24.6605 20.7952 24.0979 20.2326C23.5353 19.67 22.7722 19.354 21.9766 19.354Z" fill="#596AFF"/>
</g>
<defs>
<clipPath id="clip0_25_1205">
<rect width="87" height="87" rx="20" fill="white"/>
</clipPath>
</defs>
</svg>
