<svg width="87" height="87" viewBox="0 0 87 87" fill="none" xmlns="http://www.w3.org/2000/svg">
<g clip-path="url(#clip0_119_72)">
<path d="M86.3799 0.416748H0.253906V86.5427H86.3799V0.416748Z" fill="#F4E6FF"/>
<path fill-rule="evenodd" clip-rule="evenodd" d="M65.802 47.7079C66.7592 48.2164 67.4977 49.0192 68.0173 49.8221C69.0292 51.4813 68.9472 53.5152 67.9626 55.3082L66.0482 58.5196C65.0362 60.2323 63.1492 61.3028 61.2074 61.3028C60.2501 61.3028 59.1835 61.0352 58.3084 60.4999C57.5973 60.045 56.7768 59.8844 55.9016 59.8844C53.1941 59.8844 50.9241 62.1056 50.842 64.755C50.842 67.8326 48.3259 70.2411 45.1808 70.2411H41.4613C38.2888 70.2411 35.7726 67.8326 35.7726 64.755C35.7179 62.1056 33.448 59.8844 30.7404 59.8844C29.8379 59.8844 29.0174 60.045 28.3337 60.4999C27.4585 61.0352 26.3645 61.3028 25.4347 61.3028C23.4655 61.3028 21.5784 60.2323 20.5665 58.5196L18.6794 55.3082C17.6675 53.5687 17.6128 51.4813 18.6247 49.8221C19.0623 49.0192 19.8828 48.2164 20.8127 47.7079C21.5784 47.3332 22.0707 46.7177 22.5357 45.9952C23.9031 43.6937 23.0826 40.6696 20.758 39.3048C18.0504 37.7794 17.1752 34.3807 18.7341 31.7313L20.5665 28.5734C22.1528 25.924 25.5441 24.9874 28.279 26.5395C30.6584 27.8241 33.7488 26.9677 35.1436 24.693C35.5812 23.9437 35.8273 23.1408 35.7726 22.338C35.7179 21.2943 36.0188 20.3041 36.5384 19.5012C37.5503 17.842 39.3827 16.7716 41.3792 16.718H45.2355C47.2593 16.718 49.0917 17.842 50.1036 19.5012C50.5959 20.3041 50.9241 21.2943 50.842 22.338C50.7873 23.1408 51.0335 23.9437 51.4711 24.693C52.8659 26.9677 55.9563 27.8241 58.3631 26.5395C61.0706 24.9874 64.4893 25.924 66.0482 28.5734L67.8806 31.7313C69.4668 34.3807 68.5916 37.7794 65.8567 39.3048C63.532 40.6696 62.7116 43.6937 64.1064 45.9952C64.544 46.7177 65.0362 47.3332 65.802 47.7079ZM35.5806 43.5065C35.5806 47.7081 39.054 51.0533 43.3478 51.0533C47.6416 51.0533 51.0329 47.7081 51.0329 43.5065C51.0329 39.305 47.6416 35.933 43.3478 35.933C39.054 35.933 35.5806 39.305 35.5806 43.5065Z" fill="#B04DFF"/>
</g>
<defs>
<clipPath id="clip0_119_72">
<rect width="87" height="87" rx="20" fill="white"/>
</clipPath>
</defs>
</svg>
