<svg width="44" height="44" viewBox="0 0 44 44" fill="none" xmlns="http://www.w3.org/2000/svg">
<rect x="0.25" y="0.25" width="43.5" height="43.5" rx="21.75" fill="white"/>
<g clip-path="url(#clip0_28_718)">
<path d="M22.0855 10C17.4499 10 16.0942 10.0048 15.8307 10.0266C14.8794 10.1057 14.2874 10.2555 13.6425 10.5766C13.1455 10.8234 12.7536 11.1094 12.3668 11.5105C11.6623 12.2418 11.2353 13.1415 11.0807 14.211C11.0056 14.7301 10.9837 14.836 10.9793 17.488C10.9776 18.3721 10.9793 19.5355 10.9793 21.096C10.9793 25.7277 10.9844 27.0821 11.0066 27.3451C11.0835 28.2708 11.2286 28.8532 11.536 29.4902C12.1236 30.7096 13.2456 31.6251 14.5675 31.9666C15.0252 32.0845 15.5308 32.1494 16.1798 32.1801C16.4547 32.1921 19.2574 32.2006 22.0617 32.2006C24.8661 32.2006 27.6704 32.1972 27.9386 32.1835C28.69 32.1482 29.1264 32.0896 29.6089 31.9649C30.2643 31.7968 30.8752 31.4877 31.3988 31.0591C31.9224 30.6305 32.3461 30.0927 32.6404 29.4834C32.9418 28.8617 33.0947 28.2571 33.1638 27.3798C33.1789 27.1885 33.1852 24.1387 33.1852 21.093C33.1852 18.0469 33.1783 15.0027 33.1633 14.8115C33.0933 13.9199 32.9404 13.3205 32.6293 12.6868C32.3739 12.1682 32.0904 11.7808 31.6788 11.3848C30.9444 10.6832 30.0461 10.2562 28.9754 10.1018C28.4567 10.0268 28.3534 10.0046 25.6994 10H22.0855Z" fill="url(#paint0_radial_28_718)"/>
<path d="M22.0855 10C17.4499 10 16.0942 10.0048 15.8307 10.0266C14.8794 10.1057 14.2874 10.2555 13.6425 10.5766C13.1455 10.8234 12.7536 11.1094 12.3668 11.5105C11.6623 12.2418 11.2353 13.1415 11.0807 14.211C11.0056 14.7301 10.9837 14.836 10.9793 17.488C10.9776 18.3721 10.9793 19.5355 10.9793 21.096C10.9793 25.7277 10.9844 27.0821 11.0066 27.3451C11.0835 28.2708 11.2286 28.8532 11.536 29.4902C12.1236 30.7096 13.2456 31.6251 14.5675 31.9666C15.0252 32.0845 15.5308 32.1494 16.1798 32.1801C16.4547 32.1921 19.2574 32.2006 22.0617 32.2006C24.8661 32.2006 27.6704 32.1972 27.9386 32.1835C28.69 32.1482 29.1264 32.0896 29.6089 31.9649C30.2643 31.7968 30.8752 31.4877 31.3988 31.0591C31.9224 30.6305 32.3461 30.0927 32.6404 29.4834C32.9418 28.8617 33.0947 28.2571 33.1638 27.3798C33.1789 27.1885 33.1852 24.1387 33.1852 21.093C33.1852 18.0469 33.1783 15.0027 33.1633 14.8115C33.0933 13.9199 32.9404 13.3205 32.6293 12.6868C32.3739 12.1682 32.0904 11.7808 31.6788 11.3848C30.9444 10.6832 30.0461 10.2562 28.9754 10.1018C28.4567 10.0268 28.3534 10.0046 25.6994 10H22.0855Z" fill="url(#paint1_radial_28_718)"/>
<path d="M22.0792 12.9033C19.8528 12.9033 19.5734 12.9131 18.699 12.9529C17.8262 12.9928 17.2305 13.131 16.7093 13.3337C16.1701 13.5431 15.7127 13.8232 15.2571 14.279C14.8011 14.7347 14.521 15.1921 14.3109 15.7311C14.1077 16.2525 13.9693 16.8484 13.93 17.7207C13.8911 18.5952 13.8809 18.8748 13.8809 21.1012C13.8809 23.3276 13.8908 23.6061 13.9304 24.4806C13.9705 25.3533 14.1087 25.949 14.3112 26.4702C14.5208 27.0094 14.8009 27.4668 15.2567 27.9225C15.7122 28.3785 16.1696 28.6592 16.7084 28.8686C17.23 29.0713 17.8259 29.2095 18.6985 29.2495C19.5729 29.2893 19.8521 29.299 22.0784 29.299C24.3049 29.299 24.5835 29.2893 25.4579 29.2495C26.3306 29.2095 26.927 29.0713 27.4486 28.8686C27.9876 28.6592 28.4443 28.3785 28.8998 27.9225C29.3558 27.4668 29.6359 27.0094 29.846 26.4704C30.0475 25.949 30.1859 25.3531 30.2268 24.4807C30.2661 23.6063 30.2764 23.3276 30.2764 21.1012C30.2764 18.8748 30.2661 18.5954 30.2268 17.7209C30.1859 16.8482 30.0475 16.2525 29.846 15.7312C29.6359 15.1921 29.3558 14.7347 28.8998 14.279C28.4438 13.823 27.9878 13.5429 27.4481 13.3337C26.9255 13.131 26.3295 12.9928 25.4567 12.9529C24.5823 12.9131 24.3039 12.9033 22.0768 12.9033H22.0792ZM21.3438 14.3806C21.5621 14.3803 21.8056 14.3806 22.0792 14.3806C24.268 14.3806 24.5275 14.3885 25.3918 14.4278C26.1911 14.4643 26.6249 14.5979 26.9139 14.7101C27.2965 14.8587 27.5692 15.0363 27.856 15.3232C28.1429 15.6102 28.3205 15.8834 28.4694 16.266C28.5816 16.5546 28.7154 16.9884 28.7517 17.7877C28.791 18.6519 28.7996 18.9115 28.7996 21.0993C28.7996 23.2871 28.791 23.5467 28.7517 24.4109C28.7152 25.2102 28.5816 25.644 28.4694 25.9326C28.3208 26.3152 28.1429 26.5876 27.856 26.8743C27.569 27.1612 27.2966 27.3389 26.9139 27.4875C26.6253 27.6002 26.1911 27.7334 25.3918 27.7699C24.5276 27.8092 24.268 27.8178 22.0792 27.8178C19.8902 27.8178 19.6308 27.8092 18.7666 27.7699C17.9673 27.733 17.5335 27.5995 17.2444 27.4873C16.8618 27.3387 16.5885 27.1611 16.3016 26.8742C16.0147 26.5872 15.8371 26.3147 15.6881 25.9319C15.5759 25.6433 15.4422 25.2095 15.4058 24.4102C15.3665 23.546 15.3587 23.2864 15.3587 21.0972C15.3587 18.9081 15.3665 18.6498 15.4058 17.7857C15.4424 16.9864 15.5759 16.5526 15.6881 16.2636C15.8367 15.881 16.0147 15.6078 16.3016 15.3208C16.5885 15.0339 16.8618 14.8563 17.2444 14.7074C17.5333 14.5946 17.9673 14.4614 18.7666 14.4247C19.5228 14.3906 19.8159 14.3803 21.3438 14.3786V14.3806ZM26.4552 15.7418C26.2606 15.7418 26.0704 15.7995 25.9086 15.9076C25.7468 16.0158 25.6207 16.1694 25.5463 16.3492C25.4718 16.529 25.4524 16.7268 25.4903 16.9176C25.5283 17.1084 25.6221 17.2837 25.7597 17.4213C25.8973 17.5589 26.0726 17.6525 26.2634 17.6905C26.4543 17.7284 26.6521 17.7088 26.8319 17.6343C27.0116 17.5598 27.1652 17.4337 27.2733 17.2719C27.3813 17.11 27.439 16.9198 27.4389 16.7252C27.4389 16.1821 26.9983 15.7415 26.4552 15.7415V15.7418ZM22.0792 16.8912C19.7543 16.8912 17.8693 18.7762 17.8693 21.1012C17.8693 23.4261 19.7543 25.3102 22.0792 25.3102C24.4042 25.3102 26.2886 23.4261 26.2886 21.1012C26.2886 18.7762 24.404 16.8912 22.079 16.8912H22.0792ZM22.0792 18.3686C23.5883 18.3686 24.8118 19.5919 24.8118 21.1012C24.8118 22.6102 23.5883 23.8338 22.0792 23.8338C20.57 23.8338 19.3466 22.6102 19.3466 21.1012C19.3466 19.5919 20.57 18.3686 22.0792 18.3686Z" fill="white"/>
</g>
<rect x="0.25" y="0.25" width="43.5" height="43.5" rx="21.75" stroke="#C7C7CF" stroke-width="0.5"/>
<defs>
<radialGradient id="paint0_radial_28_718" cx="0" cy="0" r="1" gradientUnits="userSpaceOnUse" gradientTransform="translate(16.8772 33.9105) rotate(-90) scale(22.0024 20.4696)">
<stop stop-color="#FFDD55"/>
<stop offset="0.1" stop-color="#FFDD55"/>
<stop offset="0.5" stop-color="#FF543E"/>
<stop offset="1" stop-color="#C837AB"/>
</radialGradient>
<radialGradient id="paint1_radial_28_718" cx="0" cy="0" r="1" gradientUnits="userSpaceOnUse" gradientTransform="translate(7.25878 11.5993) rotate(78.6776) scale(9.83529 40.5517)">
<stop stop-color="#3771C8"/>
<stop offset="0.128" stop-color="#3771C8"/>
<stop offset="1" stop-color="#6600FF" stop-opacity="0"/>
</radialGradient>
<clipPath id="clip0_28_718">
<rect width="24" height="23" fill="white" transform="translate(10 10)"/>
</clipPath>
</defs>
</svg>
