<svg width="414" height="152" viewBox="0 0 414 152" fill="none" xmlns="http://www.w3.org/2000/svg">
<path d="M188.2 103.4V63.6998H188.9L217.5 103.4H226.5V45.0998H216.5V84.6998H215.8L187.2 45.0998H178.2V103.4H188.2ZM254.8 104.3C268 104.3 276.1 95.6998 276.1 81.2998C276.1 66.9998 268 58.2998 254.8 58.2998C241.7 58.2998 233.5 66.9998 233.5 81.2998C233.6 95.6998 241.6 104.3 254.8 104.3ZM254.8 95.8998C247.8 95.8998 243.8 90.5998 243.8 81.2998C243.8 72.0998 247.8 66.6998 254.8 66.6998C261.8 66.6998 265.8 72.0998 265.8 81.2998C265.8 90.5998 261.8 95.8998 254.8 95.8998ZM285.2 48.3998V59.4998H278.2V67.4998H285.2V91.5998C285.2 100.2 289.2 103.6 299.4 103.6C301.3 103.6 303.2 103.4 304.7 103.1V95.2998C303.5 95.3998 302.7 95.4998 301.3 95.4998C297.1 95.4998 295.2 93.5998 295.2 89.1998V67.4998H304.7V59.4998H295.2V48.3998H285.2ZM310.7 103.4H320.7V59.1998H310.7V103.4ZM315.7 51.8998C319 51.8998 321.7 49.1998 321.7 45.8998C321.7 42.4998 319 39.7998 315.7 39.7998C312.4 39.7998 309.7 42.4998 309.7 45.8998C309.7 49.1998 312.4 51.8998 315.7 51.8998ZM348.1 104.3C361.3 104.3 369.4 95.6998 369.4 81.2998C369.4 66.9998 361.3 58.2998 348.1 58.2998C335 58.2998 326.8 66.9998 326.8 81.2998C326.8 95.6998 334.8 104.3 348.1 104.3ZM348.1 95.8998C341.1 95.8998 337.1 90.5998 337.1 81.2998C337.1 72.0998 341.1 66.6998 348.1 66.6998C355 66.6998 359.1 72.0998 359.1 81.2998C359 90.5998 355 95.8998 348.1 95.8998ZM375.3 103.4H385.3V77.6998C385.3 71.1998 389.1 67.0998 395 67.0998C401.1 67.0998 403.9 70.4998 403.9 77.1998V103.4H413.9V74.7998C413.9 64.1998 408.5 58.2998 398.7 58.2998C392.1 58.2998 387.7 61.2998 385.6 66.2998H384.9V59.1998H375.2C375.3 59.1998 375.3 103.4 375.3 103.4Z" fill="black"/>
<path fill-rule="evenodd" clip-rule="evenodd" d="M25 27.0998C29.7 30.8998 31.4 30.5998 40.2 29.9998L123.1 24.9998C124.9 24.9998 123.4 23.1998 122.8 22.9998L109 13.0998C106.4 11.0998 102.8 8.69977 96.1 9.29977L15.9 15.1998C13 15.4998 12.4 16.9998 13.6 18.0998L25 27.0998ZM30 46.3998V133.6C30 138.3 32.3 140 37.6 139.7L128.7 134.4C134 134.1 134.6 130.9 134.6 127.1V40.4998C134.6 36.6998 133.1 34.5998 129.9 34.8998L34.7 40.4998C31.2 40.7998 30 42.5998 30 46.3998ZM119.9 51.0998C120.5 53.6998 119.9 56.3998 117.3 56.6998L112.9 57.5998V122C109.1 124 105.6 125.2 102.6 125.2C97.9 125.2 96.7 123.7 93.2 119.3L64.5 74.1998V117.8L73.6 119.8C73.6 119.8 73.6 125.1 66.3 125.1L46.1 126.3C45.5 125.1 46.1 122.2 48.1 121.6L53.4 120.1V62.4998L46.1 61.8998C45.5 59.2998 47 55.4998 51.1 55.1998L72.8 53.6998L102.7 99.2998V58.9998L95.1 58.0998C94.5 54.8998 96.9 52.4998 99.8 52.1998L119.9 51.0998ZM9.19997 7.19976L92.7 1.09976C102.9 0.199761 105.6 0.799763 112 5.49976L138.6 24.1998C143 27.3998 144.5 28.2998 144.5 31.7998V134.5C144.5 140.9 142.2 144.7 134 145.3L37.1 151.2C30.9 151.5 28 150.6 24.8 146.5L5.09998 121C1.59998 116.3 0.0999756 112.8 0.0999756 108.7V17.3998C0.0999756 12.0998 2.49997 7.79976 9.19997 7.19976Z" fill="black"/>
</svg>
