<svg width="511" height="105" viewBox="0 0 511 105" fill="none" xmlns="http://www.w3.org/2000/svg">
<path d="M173.428 91.8858C162.537 91.8858 153.816 88.2971 147.261 81.1195C140.706 73.942 137.431 64.6057 137.431 53.1067C137.431 40.7537 140.769 30.8963 147.449 23.5386C154.125 16.1847 163.215 12.5058 174.714 12.5058C185.319 12.5058 193.864 16.0789 200.344 23.2173C206.824 30.3596 210.064 39.6998 210.064 51.2301C210.064 63.7634 206.742 73.6717 200.101 80.955C193.461 88.2383 184.567 91.8858 173.428 91.8858ZM174.071 20.6472C166 20.6472 159.45 23.5582 154.411 29.3801C149.377 35.2021 146.857 42.8458 146.857 52.3075C146.857 61.7731 149.31 69.3855 154.223 75.1565C159.132 80.9236 165.534 83.8033 173.425 83.8033C181.852 83.8033 188.493 81.0568 193.351 75.5561C198.205 70.0633 200.634 62.3647 200.634 52.472C200.634 42.3326 198.276 34.4929 193.562 28.957C188.853 23.4132 182.353 20.6472 174.071 20.6472Z" fill="#0072C6"/>
<path d="M256.816 90.6008V81.9227H256.601C252.957 88.5635 247.316 91.8858 239.676 91.8858C226.606 91.8858 220.071 84.1049 220.071 68.5314V35.7506H228.804V67.1366C228.804 78.7061 233.231 84.4928 242.089 84.4928C246.375 84.4928 249.901 82.9178 252.667 79.7561C255.433 76.5944 256.82 72.4649 256.82 67.3521V35.7506H265.604V90.6008H256.816Z" fill="#0072C6"/>
<path d="M306.033 90.064C303.96 91.2119 301.229 91.78 297.837 91.78C288.23 91.78 283.427 86.4243 283.427 75.7089V43.2494H274V35.7506H283.427V22.3593L292.211 19.5188V35.7506H306.029V43.2494H292.211V74.1535C292.211 77.8324 292.833 80.4574 294.087 82.0285C295.337 83.6034 297.41 84.387 300.301 84.387C302.515 84.387 304.426 83.7837 306.033 82.5652V90.064Z" fill="#0072C6"/>
<path d="M30.8728 40.7263C28.6553 40.7263 26.8883 41.7684 25.5837 43.8488C24.279 45.9292 23.6248 48.6835 23.6248 52.1116C23.6248 55.5907 24.279 58.341 25.5837 60.3626C26.8883 62.3882 28.6005 63.3951 30.7161 63.3951C32.8984 63.3951 34.6301 62.4117 35.9073 60.4449C37.1845 58.4781 37.827 55.7474 37.827 52.2566C37.827 48.6169 37.208 45.7842 35.9661 43.7587C34.7241 41.7371 33.0277 40.7263 30.8728 40.7263Z" fill="#0072C6"/>
<path d="M0 11.7536V91.5802L60.727 104.313V0L0 11.7536ZM40.6362 65.162C38.07 68.5392 34.7241 70.2318 30.5947 70.2318C26.571 70.2318 23.2957 68.5941 20.7608 65.3227C18.2299 62.0473 16.9605 57.7847 16.9605 52.5269C16.9605 46.9753 18.2455 42.4854 20.8196 39.0573C23.3936 35.6291 26.8022 33.9131 31.0452 33.9131C35.0532 33.9131 38.2972 35.5508 40.7694 38.8339C43.2455 42.1171 44.4835 46.4424 44.4835 51.8138C44.4874 57.3341 43.2024 61.7848 40.6362 65.162Z" fill="#0072C6"/>
<path d="M64.5665 22.1164V42.5207L71.697 47.0105C71.8851 47.0654 72.2926 47.0693 72.4806 47.0105L103.169 26.3203C103.169 23.8716 100.885 22.1164 99.5962 22.1164H64.5665Z" fill="#0072C6"/>
<path d="M64.5665 50.1331L71.0741 54.6034C71.9909 55.2772 73.0957 54.6034 73.0957 54.6034C71.9948 55.2772 103.173 34.5674 103.173 34.5674V72.0692C103.173 76.1517 100.56 77.8638 97.6216 77.8638H64.5626V50.1331H64.5665Z" fill="#0072C6"/>
<path d="M326.378 90.6008H317.594V9.39506H326.378V90.6008Z" fill="#0072C6"/>
<path d="M364.342 91.8858C356.236 91.8858 349.764 89.3236 344.925 84.199C340.087 79.0744 337.666 72.2808 337.666 63.8182C337.666 54.6034 340.185 47.4102 345.219 42.2307C350.254 37.0552 357.055 34.4655 365.624 34.4655C373.804 34.4655 380.186 36.9847 384.778 42.0192C389.362 47.0536 391.658 54.0353 391.658 62.9641C391.658 71.7127 389.186 78.7179 384.241 83.9874C379.293 89.253 372.664 91.8858 364.342 91.8858ZM364.985 41.8546C359.343 41.8546 354.881 43.7744 351.598 47.6139C348.311 51.4534 346.669 56.7464 346.669 63.4969C346.669 69.9967 348.33 75.1213 351.649 78.8707C354.967 82.6201 359.414 84.4967 364.985 84.4967C370.662 84.4967 375.03 82.6593 378.086 78.9804C381.138 75.3054 382.662 70.075 382.662 63.2854C382.662 56.4291 381.138 51.1439 378.086 47.4298C375.03 43.7117 370.662 41.8546 364.985 41.8546Z" fill="#0072C6"/>
<path d="M425.88 91.8858C417.774 91.8858 411.302 89.3236 406.463 84.199C401.625 79.0744 399.204 72.2808 399.204 63.8182C399.204 54.6034 401.723 47.4102 406.757 42.2307C411.792 37.0552 418.593 34.4655 427.165 34.4655C435.342 34.4655 441.728 36.9847 446.316 42.0192C450.904 47.0536 453.2 54.0353 453.2 62.9641C453.2 71.7127 450.728 78.7179 445.779 83.9874C440.831 89.2569 434.198 91.8858 425.88 91.8858ZM426.523 41.8546C420.881 41.8546 416.415 43.7744 413.132 47.6139C409.845 51.4534 408.203 56.7464 408.203 63.4969C408.203 69.9967 409.864 75.1213 413.183 78.8707C416.501 82.6201 420.948 84.4967 426.519 84.4967C432.196 84.4967 436.561 82.6593 439.616 78.9804C442.669 75.3054 444.196 70.075 444.196 63.2854C444.196 56.4291 442.669 51.1439 439.616 47.4298C436.564 43.7117 432.2 41.8546 426.523 41.8546Z" fill="#0072C6"/>
<path d="M510.017 90.6008H497.695L473.483 64.2453H473.267V90.6008H464.483V9.39506H473.267V60.872H473.483L496.516 35.7506H508.03L482.588 62.2119L510.017 90.6008Z" fill="#0072C6"/>
</svg>
