<svg width="87" height="87" viewBox="0 0 87 87" fill="none" xmlns="http://www.w3.org/2000/svg">
<g clip-path="url(#clip0_25_1185)">
<path d="M86.3037 0H0.177734V86.126H86.3037V0Z" fill="#FFE5E9"/>
<path d="M65.6207 64.1239C65.4143 65.8646 63.9611 67.1599 62.2609 67.1599C60.5162 67.1599 59.063 65.8646 58.901 64.1239V50.8464C58.7391 49.547 59.3423 48.3366 60.4393 47.6485C61.5727 46.9603 62.949 46.9603 64.038 47.6485C65.135 48.3366 65.7381 49.547 65.6207 50.8464V64.1239Z" fill="#FF5F85"/>
<path d="M46.9959 64.1235C46.834 65.8641 45.3807 67.1595 43.636 67.1595C41.9359 67.1595 40.4826 65.8641 40.2762 64.1235V22.8742C40.1588 21.6193 40.762 20.3603 41.859 19.6762C42.9479 18.9881 44.3242 18.9881 45.4617 19.6762C46.5547 20.3603 47.1578 21.6193 46.9959 22.8742V64.1235Z" fill="#FF5F85"/>
<path d="M28.1315 64.1234C27.9695 65.864 26.5163 67.1594 24.7716 67.1594C23.031 67.1594 21.5737 65.864 21.4158 64.1234V36.1516C21.2944 34.8926 21.8975 33.6418 22.9945 32.9536C24.0834 32.2655 25.4638 32.2655 26.5568 32.9536C27.6457 33.6418 28.2569 34.8926 28.1315 36.1516V64.1234Z" fill="#FF5F85"/>
</g>
<defs>
<clipPath id="clip0_25_1185">
<rect width="87" height="87" rx="20" fill="white"/>
</clipPath>
</defs>
</svg>
