<svg width="981" height="200" viewBox="0 0 981 200" fill="none" xmlns="http://www.w3.org/2000/svg">
<path fill-rule="evenodd" clip-rule="evenodd" d="M173.424 0H23.3924C17.1938 -5.62925e-06 11.2487 2.46019 6.86274 6.84026C2.47676 11.2203 0.00854503 17.1621 0.000191212 23.3607V173.171C-0.0122611 176.251 0.583606 179.303 1.7536 182.152C2.92359 185.001 4.64467 187.591 6.81807 189.773C8.99148 191.956 11.5744 193.687 14.4187 194.869C17.2629 196.05 20.3125 196.658 23.3924 196.658H173.424C176.501 196.654 179.547 196.043 182.388 194.86C185.229 193.676 187.808 191.944 189.978 189.762C192.148 187.581 193.866 184.992 195.034 182.145C196.202 179.298 196.797 176.249 196.785 173.171V23.3607C196.776 17.1676 194.312 11.2306 189.933 6.85139C185.554 2.47222 179.617 0.00834085 173.424 0ZM84.8678 141.646C84.8637 142.675 84.6563 143.694 84.2576 144.643C83.8589 145.592 83.2767 146.453 82.5444 147.176C81.8121 147.9 80.9442 148.471 79.9904 148.859C79.0366 149.246 78.0157 149.441 76.9863 149.433H44.1994C42.1397 149.424 40.1672 148.6 38.7136 147.141C37.2601 145.681 36.4441 143.705 36.4441 141.646V44.0731C36.4441 42.0134 37.2601 40.0375 38.7136 38.5781C40.1672 37.1187 42.1397 36.2946 44.1994 36.2863H76.9863C79.049 36.2946 81.0248 37.1176 82.4833 38.5762C83.9418 40.0347 84.7649 42.0105 84.7732 44.0731L84.8678 141.646ZM160.53 96.8474C160.53 97.878 160.325 98.8984 159.928 99.8493C159.531 100.8 158.949 101.663 158.216 102.387C157.483 103.112 156.613 103.683 155.657 104.069C154.702 104.455 153.679 104.647 152.648 104.634H119.861C117.799 104.626 115.823 103.803 114.364 102.344C112.906 100.886 112.083 98.9101 112.075 96.8474V44.0731C112.083 42.0105 112.906 40.0347 114.364 38.5762C115.823 37.1176 117.799 36.2946 119.861 36.2863H152.648C154.708 36.2946 156.681 37.1187 158.134 38.5781C159.588 40.0375 160.404 42.0134 160.404 44.0731L160.53 96.8474Z" fill="url(#paint0_linear_109_55)"/>
<path d="M407.756 14.4073V52.4275H362.705V196.658H319.262V52.4275H274.212V14.4073H407.756ZM463.052 196.658H422.888V54.7919H463.052V81.9672C470.681 62.831 482.882 51.4502 504.603 52.8373V94.8613C476.23 92.6545 463.052 99.5902 463.052 122.32V196.658ZM724.023 197.762C697.699 197.762 681.148 185.151 681.148 155.328V0H721.595V149.779C721.595 158.386 727.27 161.444 734.206 161.444C736.206 161.484 738.208 161.39 740.196 161.16V196.122C734.906 197.411 729.464 197.963 724.023 197.762ZM808.386 197.762C782.062 197.762 765.479 185.151 765.479 155.328V0H805.927V149.779C805.927 158.386 811.633 161.444 818.695 161.444C820.685 161.485 822.676 161.39 824.653 161.16V196.122C819.334 197.423 813.858 197.975 808.386 197.762ZM844.042 125.662C844.042 81.8411 869.262 51.86 912.705 51.86C956.148 51.86 980.832 81.7465 980.832 125.662C980.832 169.578 955.864 200 912.705 200C869.546 200 844.042 169.199 844.042 125.662ZM883.418 125.662C883.418 147.005 892.371 163.934 912.705 163.934C933.039 163.934 941.488 147.005 941.488 125.662C941.488 104.319 932.819 87.831 912.705 87.831C892.592 87.831 883.418 104.288 883.418 125.662ZM558.827 138.493C570.073 139.729 581.375 140.391 592.686 140.479C623.455 140.479 649.433 132.219 649.433 102.427C649.433 73.5183 622.73 51.797 590.606 51.797C547.352 51.797 519.641 83.1652 519.641 126.986C519.641 172.478 543.537 199.496 597.541 199.496C613.562 199.626 629.468 196.783 644.452 191.11V157.125C630.58 161.57 614.975 165.984 598.96 165.984C577.459 165.984 562.484 158.922 558.827 138.493ZM589.786 82.7554C601.167 82.7554 610.309 90.4792 610.309 101.04C610.309 114.628 595.965 118.884 579.445 118.884C572.415 118.852 565.396 118.293 558.449 117.213C558.974 110.589 560.874 104.146 564.029 98.2976C566.56 93.6621 570.281 89.7847 574.808 87.0641C579.335 84.3435 584.505 82.878 589.786 82.8184V82.7554Z" fill="#293856"/>
<defs>
<linearGradient id="paint0_linear_109_55" x1="490.887" y1="200" x2="490.887" y2="0" gradientUnits="userSpaceOnUse">
<stop stop-color="#0052CC"/>
<stop offset="1" stop-color="#2684FF"/>
</linearGradient>
</defs>
</svg>
