<svg width="44" height="44" viewBox="0 0 44 44" fill="none" xmlns="http://www.w3.org/2000/svg">
<rect x="0.25" y="0.25" width="43.5" height="43.5" rx="21.75" fill="white"/>
<path d="M33 15.1308C32.2136 15.4982 31.3795 15.7394 30.5254 15.8463C31.4151 15.2839 32.0981 14.3934 32.4198 13.3323C31.5741 13.8616 30.6488 14.2346 29.684 14.435C28.898 13.5519 27.7784 13 26.5391 13C24.1597 13 22.2306 15.0346 22.2306 17.544C22.2306 17.9002 22.2688 18.247 22.3422 18.5796C18.7615 18.3901 15.5869 16.581 13.4619 13.8318C13.0911 14.5029 12.8786 15.2836 12.8786 16.1163C12.8786 17.6928 13.6393 19.0836 14.7953 19.8985C14.1111 19.8759 13.442 19.681 12.8438 19.3301C12.8435 19.3491 12.8435 19.3682 12.8435 19.3873C12.8435 21.5889 14.3286 23.4256 16.2995 23.843C15.6651 24.025 14.9996 24.0517 14.3539 23.9209C14.9021 25.7262 16.4933 27.0399 18.3785 27.0767C16.904 28.2954 15.0462 29.0219 13.0278 29.0219C12.68 29.0219 12.3371 29.0004 12 28.9584C13.9067 30.2477 16.1713 31 18.6043 31C26.5291 31 30.8626 24.0758 30.8626 18.071C30.8626 17.8739 30.8585 17.6779 30.8501 17.4831C31.6936 16.84 32.4216 16.0434 33 15.1308Z" fill="#55ACEE"/>
<rect x="0.25" y="0.25" width="43.5" height="43.5" rx="21.75" stroke="#C7C7CF" stroke-width="0.5"/>
</svg>
